<svg width="11" height="9" viewBox="0 0 11 9" fill="none" xmlns="http://www.w3.org/2000/svg">
<path d="M10.2188 1.40625H0.28125C0.117188 1.40625 0 1.28906 0 1.125V0.375C0 0.234375 0.117188 0.09375 0.28125 0.09375H10.2188C10.3594 0.09375 10.5 0.234375 10.5 0.375V1.125C10.5 1.28906 10.3594 1.40625 10.2188 1.40625ZM10.2188 5.15625H0.28125C0.117188 5.15625 0 5.03906 0 4.875V4.125C0 3.98438 0.117188 3.84375 0.28125 3.84375H10.2188C10.3594 3.84375 10.5 3.98438 10.5 4.125V4.875C10.5 5.03906 10.3594 5.15625 10.2188 5.15625ZM10.2188 8.90625H0.28125C0.117188 8.90625 0 8.78906 0 8.625V7.875C0 7.73438 0.117188 7.59375 0.28125 7.59375H10.2188C10.3594 7.59375 10.5 7.73438 10.5 7.875V8.625C10.5 8.78906 10.3594 8.90625 10.2188 8.90625Z" fill="white"/>
</svg>
